<svg xmlns="http://www.w3.org/2000/svg" xmlns:xlink="http://www.w3.org/1999/xlink" width="3171.429" height="1445.714" version="1.1" viewBox="0 0 3171.429 1445.714"><g transform="scale(8.571428571428573) translate(10, 10)"><defs id="SvgjsDefs3120"><linearGradient id="SvgjsLinearGradient3125"><stop id="SvgjsStop3126" offset="0" stop-color="#006838"/><stop id="SvgjsStop3127" offset="1" stop-color="#96cf24"/></linearGradient><linearGradient id="SvgjsLinearGradient3128"><stop id="SvgjsStop3129" offset="0" stop-color="#006838"/><stop id="SvgjsStop3130" offset="1" stop-color="#96cf24"/></linearGradient></defs><g id="SvgjsG3121" fill="url(#SvgjsLinearGradient3125)" featureKey="nameFeature-0" transform="matrix(2.756556640427366,0,0,2.756556640427366,-3.748913455735331,-29.660550081924203)"><path d="M17.88 10.8 l5.32 0 l0 29.2 l-5.32 0 l0 -2.48 c-1.44 1.84 -3.68 3.04 -6.52 3.04 c-5.6 0 -10 -4.56 -10 -10.68 c0 -6.16 4.4 -10.68 10 -10.68 c2.84 0 5.08 1.16 6.52 3 l0 -11.4 z M12.28 35.84 c3.2 0 5.76 -2.48 5.76 -6 c0 -3.48 -2.56 -5.92 -5.76 -5.92 c-3.32 0 -5.68 2.44 -5.68 5.92 c0 3.52 2.36 6 5.68 6 z M39.89 19.76 l5.28 0 l0 20.24 l-5.28 0 l0 -2.56 c-1.36 1.8 -3.56 3.12 -6.48 3.12 c-5.32 0 -8 -3.56 -8 -9 l0 -11.8 l5.28 0 l0 10.8 c0 3.08 1.4 5.08 4.32 5.08 c3 0 4.88 -2.32 4.88 -5.92 l0 -9.96 z M71.78 19.2 c4.84 0 8 3.12 8 8.76 l0 12.04 l-5.28 0 l0 -10.92 c0 -3.04 -1.12 -4.96 -3.88 -4.96 c-2.84 0 -4.28 2.12 -4.28 5.56 l0 10.32 l-5.32 0 l0 -10.92 c0 -3 -1.08 -4.96 -3.8 -4.96 c-2.84 0 -4.36 2.16 -4.36 5.72 l0 10.16 l-5.28 0 l0 -20.24 l5.28 0 l0 2.4 c1.32 -1.72 3.32 -2.96 6 -2.96 c2.84 0 4.84 1.12 6.08 3.04 c1.32 -1.68 3.6 -3.04 6.84 -3.04 z M84.67000000000002 16.92 c-1.76 0 -3.16 -1.36 -3.16 -3.12 c0 -1.68 1.4 -3.04 3.16 -3.04 s3.16 1.36 3.16 3.04 c0 1.76 -1.4 3.12 -3.16 3.12 z M81.95000000000002 40 l0 -20.24 l5.32 0 l0 20.24 l-5.32 0 z M97.72000000000001 40.56 c-5 0 -8.84 -2.96 -9.84 -6.24 l4.76 -1.4 c0.68 1.92 2.6 3.36 5.28 3.36 c2.04 0 3.36 -0.96 3.36 -2.08 c0 -1 -0.76 -1.56 -2.24 -2 l-5.16 -1.52 c-2.88 -0.84 -5 -2.52 -5 -5.4 c0 -3.4 3.68 -6.08 8.12 -6.08 c4.36 0 7.68 2.08 8.96 5.12 l-4.68 1.36 c-0.72 -1.28 -2.2 -2.36 -4.32 -2.36 c-1.64 0 -2.88 0.88 -2.88 1.84 c0 0.8 0.56 1.28 1.68 1.6 l5.04 1.44 c3.04 0.88 5.68 2.12 5.68 5.76 c0 3.8 -3.6 6.6 -8.76 6.6 z M116.49000000000001 40.56 c-5.6 0 -10 -4.56 -10 -10.68 c0 -6.16 4.4 -10.68 10 -10.68 c2.84 0 5.08 1.16 6.52 3 l0 -2.44 l5.32 0 l0 20.24 l-5.32 0 l0 -2.48 c-1.44 1.84 -3.68 3.04 -6.52 3.04 z M117.41000000000001 35.84 c3.2 0 5.76 -2.48 5.76 -6 c0 -3.48 -2.56 -5.92 -5.76 -5.92 c-3.32 0 -5.68 2.44 -5.68 5.92 c0 3.52 2.36 6 5.68 6 z"/></g><g id="SvgjsG3122" fill="url(#SvgjsLinearGradient3128)" featureKey="sloganFeature-0" transform="matrix(3.26340278459966,0,0,3.26340278459966,107.00000155611171,83.33334142511423)"><path d="M5.78 8.68 l1.94 0 l0 8.9 c0 1.34 -1.08 2.42 -2.42 2.42 c-0.54 0 -1.04 -0.18 -1.44 -0.48 c-0.4 0.3 -0.9 0.48 -1.44 0.48 c-1.34 0 -2.42 -1.08 -2.42 -2.42 l0 -8.82 l1.92 0 l0 8.82 c0 0.28 0.22 0.5 0.5 0.5 c0.26 0 0.48 -0.22 0.48 -0.5 l0 -8.82 l1.92 0 l0 8.82 c0 0.28 0.22 0.5 0.48 0.5 c0.28 0 0.48 -0.22 0.48 -0.5 l0 -8.9 z M10.74 19.96 c-1.44 0 -2.6 -1.18 -2.6 -2.62 l0 -6.24 c0 -1.32 1.08 -2.4 2.4 -2.4 l0.42 0 c1.32 0 2.4 1.08 2.4 2.4 l0 2.62 l-3.36 0.06 l0 3.56 c0 0.42 0.32 0.76 0.74 0.76 s0.76 -0.34 0.76 -0.76 l0 -1.24 l1.86 0 l0 1.24 c0 1.44 -1.18 2.62 -2.62 2.62 z M10.96 10.54 l-0.42 0 c-0.3 0 -0.54 0.26 -0.54 0.56 l0 0.84 l1.5 -0.04 l0 -0.8 c0 -0.3 -0.24 -0.56 -0.54 -0.56 z M17.34 8.66 c1.32 0 2.38 1.08 2.38 2.4 l0 6.54 c0 1.32 -1.06 2.4 -2.38 2.4 l-2.98 0 l0 -14.28 l1.9 0 l0 2.94 l1.08 0 z M17.82 17.6 l0 -6.54 c0 -0.28 -0.22 -0.5 -0.48 -0.5 l-1.08 0 l0 7.52 l1.08 0 c0.26 0 0.48 -0.22 0.48 -0.48 z M30.099999999999998 5.720000000000001 l0 14.3 l-2.98 0 c-1.32 0 -2.4 -1.06 -2.4 -2.4 l0 -6.54 c0 -1.32 1.08 -2.4 2.4 -2.4 l1.06 0 l0 -2.96 l1.92 0 z M28.18 10.58 l-1.06 0 c-0.28 0 -0.5 0.22 -0.5 0.5 l0 6.54 c0 0.28 0.22 0.5 0.5 0.5 l1.06 0 l0 -7.54 z M33.699999999999996 19.96 c-1.44 0 -2.6 -1.18 -2.6 -2.62 l0 -6.24 c0 -1.32 1.08 -2.4 2.4 -2.4 l0.42 0 c1.32 0 2.4 1.08 2.4 2.4 l0 2.62 l-3.36 0.06 l0 3.56 c0 0.42 0.32 0.76 0.74 0.76 s0.76 -0.34 0.76 -0.76 l0 -1.24 l1.86 0 l0 1.24 c0 1.44 -1.18 2.62 -2.62 2.62 z M33.919999999999995 10.54 l-0.42 0 c-0.3 0 -0.54 0.26 -0.54 0.56 l0 0.84 l1.5 -0.04 l0 -0.8 c0 -0.3 -0.24 -0.56 -0.54 -0.56 z M38.6 19.98 c-0.2 -1.7 -0.48 -3.4 -0.74 -5.06 c-0.3 -1.94 -0.64 -4.14 -0.86 -6.18 l1.94 0 c0.16 1.56 0.38 3.12 0.62 4.64 c0.02 -0.1 0.04 -0.2 0.04 -0.28 c0.08 -0.8 0.18 -1.56 0.26 -2.28 c0.1 -0.7 0.18 -1.38 0.24 -2.04 l1.9 0 c-0.06 0.72 -0.14 1.6 -0.24 2.3 s-0.18 1.44 -0.26 2.2 l0 0.08 c-0.22 1.38 -0.4 2.74 -0.58 4.06 c-0.1 0.84 -0.22 1.72 -0.34 2.58 l-1.98 0 l0 -0.02 z"/></g></g></svg>